<svg width="94" height="31" viewBox="0 0 94 31" fill="none" xmlns="http://www.w3.org/2000/svg">
<path d="M0 15.5925V0H3.8115C5.13333 0 6.16 0.17325 6.8915 0.51975C7.63583 0.853417 8.162 1.386 8.47 2.1175C8.778 2.83617 8.932 3.76017 8.932 4.8895V10.5683C8.932 11.7233 8.778 12.6729 8.47 13.4173C8.162 14.1616 7.64225 14.7134 6.91075 15.0728C6.19208 15.4193 5.18467 15.5925 3.8885 15.5925H0ZM3.17625 13.3788H3.85C4.44033 13.3788 4.85742 13.2889 5.10125 13.1093C5.35792 12.9168 5.51833 12.6408 5.5825 12.2815C5.64667 11.9093 5.67875 11.4538 5.67875 10.9148V4.48525C5.67875 3.94625 5.63383 3.51633 5.544 3.1955C5.467 2.86183 5.30017 2.618 5.0435 2.464C4.79967 2.31 4.39542 2.233 3.83075 2.233H3.17625V13.3788Z" fill="black"/>
<path d="M10.0581 15.5925L13.0804 0H16.6031L19.6061 15.5925H16.6609L16.1026 12.166H13.6386L13.0419 15.5925H10.0581ZM13.9274 10.2218H15.7946L14.8514 3.927L13.9274 10.2218Z" fill="black"/>
<path d="M21.1863 15.5925V0H23.4L26.865 8.1235V0H29.483V15.5925H27.3655L23.9005 6.9685V15.5925H21.1863Z" fill="black"/>
<path d="M36.6577 15.5925V0H40.4692C41.791 0 42.8177 0.17325 43.5492 0.51975C44.2936 0.853417 44.8197 1.386 45.1277 2.1175C45.4357 2.83617 45.5897 3.76017 45.5897 4.8895V10.5683C45.5897 11.7233 45.4357 12.6729 45.1277 13.4173C44.8197 14.1616 44.3 14.7134 43.5685 15.0728C42.8498 15.4193 41.8424 15.5925 40.5462 15.5925H36.6577ZM39.834 13.3788H40.5077C41.098 13.3788 41.5151 13.2889 41.759 13.1093C42.0156 12.9168 42.176 12.6408 42.2402 12.2815C42.3044 11.9093 42.3365 11.4538 42.3365 10.9148V4.48525C42.3365 3.94625 42.2915 3.51633 42.2017 3.1955C42.1247 2.86183 41.9579 2.618 41.7012 2.464C41.4574 2.31 41.0531 2.233 40.4885 2.233H39.834V13.3788Z" fill="black"/>
<path d="M47.6926 15.5925V0H54.4879V2.1945H50.8689V6.33325H53.6601V8.547H50.8689V13.4365H54.5264V15.5925H47.6926Z" fill="black"/>
<path d="M56.1333 15.5925V0H58.347L61.812 8.1235V0H64.4301V15.5925H62.3125L58.8475 6.9685V15.5925H56.1333Z" fill="black"/>
<path d="M66.7922 15.5925V0H69.006L72.471 8.1235V0H75.089V15.5925H72.9715L69.5065 6.9685V15.5925H66.7922Z" fill="black"/>
<path d="M77.4512 15.5925V0H84.2464V2.1945H80.6274V6.33325H83.4187V8.547H80.6274V13.4365H84.2849V15.5925H77.4512Z" fill="black"/>
<path d="M87.9323 15.5925V9.41325L84.8908 0H87.8746L89.5493 5.48625L91.1086 0H93.9961L90.9931 9.41325V15.5925H87.9323Z" fill="black"/>
<path d="M0 26.84V17.12H1.38L3.54 22.184V17.12H5.172V26.84H3.852L1.692 21.464V26.84H0Z" fill="#B51F24"/>
<path d="M9.35653 26.972C8.64453 26.972 8.08053 26.844 7.66453 26.588C7.24853 26.332 6.94853 25.968 6.76453 25.496C6.58853 25.016 6.50053 24.444 6.50053 23.78V20.156C6.50053 19.492 6.58853 18.924 6.76453 18.452C6.94853 17.98 7.24853 17.62 7.66453 17.372C8.08053 17.124 8.64453 17 9.35653 17C10.0765 17 10.6445 17.128 11.0605 17.384C11.4845 17.632 11.7845 17.992 11.9605 18.464C12.1445 18.928 12.2365 19.492 12.2365 20.156V23.78C12.2365 24.444 12.1445 25.016 11.9605 25.496C11.7845 25.968 11.4845 26.332 11.0605 26.588C10.6445 26.844 10.0765 26.972 9.35653 26.972ZM9.35653 25.544C9.61253 25.544 9.80053 25.488 9.92053 25.376C10.0405 25.256 10.1205 25.1 10.1605 24.908C10.2005 24.708 10.2205 24.496 10.2205 24.272V19.676C10.2205 19.452 10.2005 19.244 10.1605 19.052C10.1205 18.86 10.0405 18.708 9.92053 18.596C9.80053 18.476 9.61253 18.416 9.35653 18.416C9.11653 18.416 8.93653 18.476 8.81653 18.596C8.69653 18.708 8.61653 18.86 8.57653 19.052C8.53653 19.244 8.51653 19.452 8.51653 19.676V24.272C8.51653 24.496 8.53253 24.708 8.56453 24.908C8.60453 25.1 8.68453 25.256 8.80453 25.376C8.92453 25.488 9.10853 25.544 9.35653 25.544Z" fill="#B51F24"/>
<path d="M16.5586 26.84V17.12H19.0786C19.7346 17.12 20.2946 17.196 20.7586 17.348C21.2306 17.492 21.5906 17.752 21.8386 18.128C22.0946 18.504 22.2226 19.024 22.2226 19.688C22.2226 20.088 22.1866 20.444 22.1146 20.756C22.0506 21.06 21.9306 21.328 21.7546 21.56C21.5866 21.784 21.3466 21.964 21.0346 22.1L22.3786 26.84H20.3506L19.2346 22.436H18.5386V26.84H16.5586ZM18.5386 21.26H19.1146C19.4346 21.26 19.6866 21.208 19.8706 21.104C20.0546 21 20.1826 20.844 20.2546 20.636C20.3346 20.42 20.3746 20.156 20.3746 19.844C20.3746 19.396 20.2906 19.056 20.1226 18.824C19.9626 18.584 19.6586 18.464 19.2106 18.464H18.5386V21.26Z" fill="#B51F24"/>
<path d="M23.5547 26.84V17.12H27.7907V18.488H25.5347V21.068H27.2747V22.448H25.5347V25.496H27.8147V26.84H23.5547Z" fill="#B51F24"/>
<path d="M31.3364 26.972C30.7364 26.972 30.2364 26.864 29.8364 26.648C29.4364 26.424 29.1324 26.092 28.9244 25.652C28.7244 25.204 28.6084 24.636 28.5764 23.948L30.2804 23.66C30.2964 24.06 30.3364 24.396 30.4004 24.668C30.4724 24.932 30.5764 25.132 30.7124 25.268C30.8564 25.396 31.0324 25.46 31.2404 25.46C31.4964 25.46 31.6684 25.38 31.7564 25.22C31.8524 25.06 31.9004 24.876 31.9004 24.668C31.9004 24.26 31.8004 23.92 31.6004 23.648C31.4084 23.368 31.1524 23.088 30.8324 22.808L29.8244 21.932C29.4644 21.628 29.1684 21.284 28.9364 20.9C28.7124 20.516 28.6004 20.044 28.6004 19.484C28.6004 18.684 28.8324 18.072 29.2964 17.648C29.7684 17.216 30.4124 17 31.2284 17C31.7164 17 32.1164 17.08 32.4284 17.24C32.7404 17.4 32.9804 17.616 33.1484 17.888C33.3244 18.152 33.4444 18.444 33.5084 18.764C33.5804 19.076 33.6244 19.388 33.6404 19.7L31.9484 19.952C31.9324 19.656 31.9044 19.396 31.8644 19.172C31.8324 18.948 31.7604 18.772 31.6484 18.644C31.5444 18.516 31.3844 18.452 31.1684 18.452C30.9364 18.452 30.7644 18.54 30.6524 18.716C30.5404 18.884 30.4844 19.072 30.4844 19.28C30.4844 19.624 30.5604 19.908 30.7124 20.132C30.8724 20.348 31.0884 20.576 31.3604 20.816L32.3444 21.68C32.7524 22.032 33.1004 22.436 33.3884 22.892C33.6844 23.34 33.8324 23.896 33.8324 24.56C33.8324 25.016 33.7284 25.428 33.5204 25.796C33.3124 26.164 33.0204 26.452 32.6444 26.66C32.2764 26.868 31.8404 26.972 31.3364 26.972Z" fill="#B51F24"/>
<path d="M34.875 26.84V17.12H39.111V18.488H36.855V21.068H38.595V22.448H36.855V25.496H39.135V26.84H34.875Z" fill="#B51F24"/>
<path d="M40.1367 26.84V17.12H42.6567C43.3127 17.12 43.8727 17.196 44.3367 17.348C44.8087 17.492 45.1687 17.752 45.4167 18.128C45.6727 18.504 45.8007 19.024 45.8007 19.688C45.8007 20.088 45.7647 20.444 45.6927 20.756C45.6287 21.06 45.5087 21.328 45.3327 21.56C45.1647 21.784 44.9247 21.964 44.6127 22.1L45.9567 26.84H43.9287L42.8127 22.436H42.1167V26.84H40.1367ZM42.1167 21.26H42.6927C43.0127 21.26 43.2647 21.208 43.4487 21.104C43.6327 21 43.7607 20.844 43.8327 20.636C43.9127 20.42 43.9527 20.156 43.9527 19.844C43.9527 19.396 43.8687 19.056 43.7007 18.824C43.5407 18.584 43.2367 18.464 42.7887 18.464H42.1167V21.26Z" fill="#B51F24"/>
<path d="M48.3956 26.84L46.5476 17.12H48.2636L49.4156 23.84L50.4956 17.12H52.2836L50.4356 26.84H48.3956Z" fill="#B51F24"/>
<path d="M67.4472 26.84V18.596H65.9472V17.12H70.9152V18.596H69.4392V26.84H67.4472Z" fill="#B51F24"/>
<path d="M71.8209 26.84V17.12H73.7889V26.84H71.8209Z" fill="#B51F24"/>
<path d="M77.9893 26.972C77.2773 26.972 76.7133 26.844 76.2973 26.588C75.8813 26.332 75.5813 25.968 75.3973 25.496C75.2213 25.016 75.1333 24.444 75.1333 23.78V20.156C75.1333 19.492 75.2213 18.924 75.3973 18.452C75.5813 17.98 75.8813 17.62 76.2973 17.372C76.7133 17.124 77.2773 17 77.9893 17C78.7093 17 79.2773 17.128 79.6933 17.384C80.1173 17.632 80.4173 17.992 80.5933 18.464C80.7773 18.928 80.8693 19.492 80.8693 20.156V23.78C80.8693 24.444 80.7773 25.016 80.5933 25.496C80.4173 25.968 80.1173 26.332 79.6933 26.588C79.2773 26.844 78.7093 26.972 77.9893 26.972ZM77.9893 25.544C78.2453 25.544 78.4333 25.488 78.5533 25.376C78.6733 25.256 78.7533 25.1 78.7933 24.908C78.8333 24.708 78.8533 24.496 78.8533 24.272V19.676C78.8533 19.452 78.8333 19.244 78.7933 19.052C78.7533 18.86 78.6733 18.708 78.5533 18.596C78.4333 18.476 78.2453 18.416 77.9893 18.416C77.7493 18.416 77.5693 18.476 77.4493 18.596C77.3293 18.708 77.2493 18.86 77.2093 19.052C77.1693 19.244 77.1493 19.452 77.1493 19.676V24.272C77.1493 24.496 77.1653 24.708 77.1973 24.908C77.2373 25.1 77.3173 25.256 77.4373 25.376C77.5573 25.488 77.7413 25.544 77.9893 25.544Z" fill="#B51F24"/>
<path d="M82.1914 26.84V17.12H83.5714L85.7314 22.184V17.12H87.3634V26.84H86.0434L83.8834 21.464V26.84H82.1914Z" fill="#B51F24"/>
<path d="M91.3559 26.972C90.7559 26.972 90.2559 26.864 89.8559 26.648C89.4559 26.424 89.1519 26.092 88.9439 25.652C88.7439 25.204 88.6279 24.636 88.5959 23.948L90.2999 23.66C90.3159 24.06 90.3559 24.396 90.4199 24.668C90.4919 24.932 90.5959 25.132 90.7319 25.268C90.8759 25.396 91.0519 25.46 91.2599 25.46C91.5159 25.46 91.6879 25.38 91.7759 25.22C91.8719 25.06 91.9199 24.876 91.9199 24.668C91.9199 24.26 91.8199 23.92 91.6199 23.648C91.4279 23.368 91.1719 23.088 90.8519 22.808L89.8439 21.932C89.4839 21.628 89.1879 21.284 88.9559 20.9C88.7319 20.516 88.6199 20.044 88.6199 19.484C88.6199 18.684 88.8519 18.072 89.3159 17.648C89.7879 17.216 90.4319 17 91.2479 17C91.7359 17 92.1359 17.08 92.4479 17.24C92.7599 17.4 92.9999 17.616 93.1679 17.888C93.3439 18.152 93.4639 18.444 93.5279 18.764C93.5999 19.076 93.6439 19.388 93.6599 19.7L91.9679 19.952C91.9519 19.656 91.9239 19.396 91.8839 19.172C91.8519 18.948 91.7799 18.772 91.6679 18.644C91.5639 18.516 91.4039 18.452 91.1879 18.452C90.9559 18.452 90.7839 18.54 90.6719 18.716C90.5599 18.884 90.5039 19.072 90.5039 19.28C90.5039 19.624 90.5799 19.908 90.7319 20.132C90.8919 20.348 91.1079 20.576 91.3799 20.816L92.3639 21.68C92.7719 22.032 93.1199 22.436 93.4079 22.892C93.7039 23.34 93.8519 23.896 93.8519 24.56C93.8519 25.016 93.7479 25.428 93.5399 25.796C93.3319 26.164 93.0399 26.452 92.6639 26.66C92.2959 26.868 91.8599 26.972 91.3559 26.972Z" fill="#B51F24"/>
<path d="M52 31L54.743 17H57.9402L60.6657 31H57.9926L57.4859 27.9235H55.2496L54.708 31H52ZM55.5117 26.1778H57.2064L56.3503 20.5259L55.5117 26.1778Z" fill="#B51F24"/>
<path d="M62.1347 31V17H65V31H62.1347Z" fill="#B51F24"/>
</svg>
